<svg xmlns="http://www.w3.org/2000/svg" x="0px" y="0px" viewBox="0 0 864 864" enable-background="new 0 0 864 864"><style>.fs0,.ls0{fill:#ffc800}</style><g transform="matrix(.64953 0 0 .64953 151.4044164038 151.4044164038)"><path class="ls0" d="M121.4 378.2H155.4V412.2H121.4z"/><path class="ls0" d="M155.3 313.7L198.3 297.2 198.3 527.3 155.3 510.8 155.3 547.2 275.2 593.4 275.2 556.9 232.3 540.4 232.3 284.1 237.9 281.9 275.2 267.6 275.2 231.1 155.3 277.2z"/><g><path class="ls0" d="M390.9 637.9L438.3 656.1 485.7 637.9 438.3 619.6z"/><path class="ls0" d="M390.9 186.6L438.3 204.9 438.3 204.9 485.7 186.6 438.3 168.4z"/><path class="ls0" d="M355.5 236.7L329.2 210.4 321.6 213.3 321.6 249.8 321.6 250.9 321.6 378.2 321.6 412.2 321.6 574.8 321.6 611.2 355.6 624.3 355.6 587.8 355.6 587.8 355.6 412.2 355.6 378.2 355.6 284.9 448.9 378.2 482.9 412.2 521 450.3 521 562.9 521 587.8 521 624.3 555 611.2 555 574.8 555 484.4 555 436.3 555 412.2 555 378.2 555 249.8 555 213.3 521 200.2 521 236.7 521 255.6 521 378.2 521 402.2 497 378.2 355.6 236.8z"/></g><path class="ls0" d="M601.4 593.3L721.3 547.2 755.3 534.2 755.3 497.7 755.3 469 721.3 469 721.3 498.2 721.3 510.8 601.4 556.9 601.4 412.2 601.4 378.2 601.4 267.6 601.4 267.6 659.9 290.1 721.3 313.7 721.3 322.9 721.3 336.5 755.3 336.5 755.3 290.3 721.3 277.2 601.4 231.1 567.4 218.1 567.4 254.5 567.4 378.2 567.4 412.2 567.4 570 567.4 606.4 601.4 593.4z"/></g><g class="fs0"><g><path d="M743.4 743.4L695.1 743.4 695.1 695.1 743.4 695.1z"/><path d="M661.4,743.4H613v-48.3h48.3L661.4,743.4z M579.3,743.4h-48.4v-48.3h48.3L579.3,743.4z M497.3,743.4h-48.4v-48.3h48.3 L497.3,743.4z M415.2,743.4h-48.4v-48.3h48.3L415.2,743.4z M333.1,743.4h-48.4v-48.3H333L333.1,743.4z M251,743.4h-48.4v-48.3h48.3 L251,743.4z"/><path d="M168.9 743.4L120.6 743.4 120.6 695.1 168.9 695.1z"/><path d="M120.6,661.4V613h48.3v48.3L120.6,661.4z M120.6,579.3v-48.4h48.3v48.3L120.6,579.3z M120.6,497.2v-48.4h48.3v48.3 L120.6,497.2z M120.6,415.2v-48.4h48.3v48.3L120.6,415.2z M120.6,333.1v-48.4h48.3V333L120.6,333.1z M120.6,251v-48.4h48.3v48.3 L120.6,251z"/><path d="M120.6 168.9L120.6 120.6 168.9 120.6 168.9 168.9z"/><path d="M661.4,168.9h-48.3l-0.1-48.3h48.4V168.9z M579.3,168.9H531l-0.1-48.3h48.4V168.9z M497.2,168.9h-48.3l-0.1-48.3h48.4 V168.9z M415.2,168.9h-48.3l-0.1-48.3h48.4V168.9z M333.1,168.9h-48.3l-0.1-48.3h48.4V168.9z M251,168.9h-48.3l-0.1-48.3H251V168.9 z"/><path d="M695.1 168.9L695.1 120.6 743.4 120.6 743.4 168.9z"/><path d="M743.4,661.4h-48.3v-48.3l48.3-0.1V661.4z M743.4,579.3h-48.3V531l48.3-0.1V579.3z M743.4,497.2h-48.3v-48.3l48.3-0.1 V497.2z M743.4,415.2h-48.3v-48.3l48.3-0.1V415.2z M743.4,333.1h-48.3v-48.3l48.3-0.1V333.1z M743.4,251h-48.3v-48.3l48.3-0.1V251z"/></g><path d="M776.7,776.7H87.3V87.3h689.4V776.7z M108.7,755.3h646.5V108.7H108.7V755.3z"/><path d="M684.4,684.4H179.6V179.6h504.7V684.4z M201.1,662.9h461.8V201.1H201.1V662.9z"/></g></svg>